PathFileType	4	(X/Y/Z)	D:\Research_projects\MuscleProsody\BulkSports2Dtrack\RetrackedSports2D\p1_sample60_cam3\p1_sample60_cam3_Sports2D\p1_sample60_cam3_Sports2D_px_person00.trc
DataRate	CameraRate	NumFrames	NumMarkers	Units	OrigDataRate	OrigDataStartFrame	OrigNumFrames
60	60	6	22	m	60	292	780
Frame#	Time	Hip			RHip			RKnee			RAnkle			RBigToe			RSmallToe			RHeel			LHip			LKnee			LAnkle			LBigToe			LSmallToe			LHeel			Neck			Head			Nose			RShoulder			RElbow			RWrist			LShoulder			LElbow			LWrist		
		X1	Y1	Z1	X2	Y2	Z2	X3	Y3	Z3	X4	Y4	Z4	X5	Y5	Z5	X6	Y6	Z6	X7	Y7	Z7	X8	Y8	Z8	X9	Y9	Z9	X10	Y10	Z10	X11	Y11	Z11	X12	Y12	Z12	X13	Y13	Z13	X14	Y14	Z14	X15	Y15	Z15	X16	Y16	Z16	X17	Y17	Z17	X18	Y18	Z18	X19	Y19	Z19	X20	Y20	Z20	X21	Y21	Z21	X22	Y22	Z22
292	4.866666666666666	230.38878660158946	548.8396729809381	0.0	206.6594431941564	553.8679599895518	0.0	206.70062237889	671.8535131127826	0.0	217.72673881751538	772.030619251642	0.0	183.74715875819982	809.1145815843217	0.0	178.49458246004278	799.3115580894703	0.0	227.68760798667688	787.1090268843005	0.0	254.97007485974913	555.3201989061304	0.0	250.82986948619958	677.0732715995723	0.0	255.38786875676965	789.3023796949559	0.0	220.0466353746791	827.6028275460751	0.0	242.76509291925103	830.2718965491813	0.0	267.89714864088637	802.9529291223731	0.0	221.83359461493302	359.69424379389557	0.0	190.42666779409842	274.00378501472426	0.0	169.80788240958478	324.9916654250747	0.0	191.1690098145422	383.8360115100318	0.0	177.69352688918198	425.3608640224202	0.0	123.31932547344577	430.0793645842524	0.0	276.31858357500033	380.98274087330043	0.0	353.22792625515245	421.82069617720566	0.0	422.44149013458997	449.5717950597629	0.0
293	4.883333333333333	230.65323188830556	548.2633373794408	0.0	206.8488589206369	553.0504465493099	0.0	206.58472127077954	671.6170246350836	0.0	217.59205058432295	771.8254406432859	0.0	183.74617661828984	808.9259201844405	0.0	178.45602306664085	799.0791032139666	0.0	227.6090500639495	786.8437717947428	0.0	255.23463462503673	554.746638019855	0.0	250.92851099104303	676.7632987340696	0.0	255.43575238595406	789.409857941827	0.0	219.93930017726456	827.6787009320652	0.0	242.6212531487991	830.2031312548976	0.0	267.86495209131255	803.0046047248209	0.0	222.58117811275318	359.6272370873084	0.0	191.61252784094532	273.9919600617571	0.0	171.0673413370848	324.7434530953323	0.0	190.91567786627863	383.197914410474	0.0	171.7574285774754	419.7688674088631	0.0	115.65964059323258	417.9182718254749	0.0	276.6440571983069	380.1799879536225	0.0	353.1776443387147	416.6949430053129	0.0	420.14775683268755	434.440626421383	0.0
294	4.9	230.89395304862626	547.7487091175647	0.0	207.03136937956805	552.2927227630223	0.0	206.50524428045355	671.4127301833154	0.0	217.503658835083	771.6010749001107	0.0	183.76466233727217	808.704938747627	0.0	178.44143380751294	798.8317993954488	0.0	227.5940048183172	786.5854698539548	0.0	255.49169268074374	554.2710808982283	0.0	251.02461241446358	676.5624857728815	0.0	255.51688281255247	789.5425008635917	0.0	219.84992974958035	827.7729831858301	0.0	242.45608624415883	830.1550373990332	0.0	267.8506429720399	803.1230925509064	0.0	223.53795734362365	359.5440766397774	0.0	193.16507591841867	273.96193620988714	0.0	172.5912688906395	324.4568821226978	0.0	190.74594201656137	382.60622807395185	0.0	165.43579850534303	414.39717598782295	0.0	107.61804156275427	406.2269451863993	0.0	277.0690951058973	379.4768063043931	0.0	352.3288670739174	412.092793069016	0.0	415.00684533537816	419.48934265351187	0.0
295	4.916666666666667	231.08827599074846	547.3105441443613	0.0	207.19634903956901	551.6380544461521	0.0	206.46238889305872	671.2563552604263	0.0	217.4647527306283	771.3877685777189	0.0	183.77880843995038	808.4717130924761	0.0	178.42972244896364	798.6011403385321	0.0	227.6537954500482	786.3557171887034	0.0	255.7300969259985	553.9123116524015	0.0	251.10803243005626	676.4865269111801	0.0	255.6281333248334	789.6922191426636	0.0	219.79048604566478	827.8819545710476	0.0	242.28492165605897	830.1311108153502	0.0	267.8626870039187	803.3035422477117	0.0	224.6727430067771	359.4387266581611	0.0	195.04643877483167	273.90971249359785	0.0	174.32758743695928	324.12127901149495	0.0	190.67849130287647	382.05433263602106	0.0	158.99260277565224	409.328256034549	0.0	99.54565056484883	395.1848318658772	0.0	277.587879252481	378.8751734876024	0.0	350.6985758116445	408.0329266408493	0.0	407.1841767588277	404.88392329718954	0.0
296	4.933333333333334	231.21998862596283	546.9613536396805	0.0	207.33395530091664	551.1154456792507	0.0	206.44722814362885	671.1587631336325	0.0	217.47120305831567	771.2216666293795	0.0	183.76145682391524	808.2470671027099	0.0	178.39951884379974	798.4079490761403	0.0	227.7871547797299	786.175615584593	0.0	255.9419615302076	553.6769131493154	0.0	251.1708521322232	676.5356920973617	0.0	255.7594035988471	789.8515801884841	0.0	219.7645280866966	828.0017575684907	0.0	242.11644138657854	830.1318005164736	0.0	267.8956765257751	803.5306474839335	0.0	225.94844235263392	359.308272592625	0.0	197.19364810198005	273.83527454855414	0.0	176.21661493568516	323.7314699653094	0.0	190.73333324888313	381.5403149525295	0.0	152.67966036580702	404.65438810484807	0.0	91.77229736165908	384.982873995581	0.0	278.19308318441483	378.3750572991259	0.0	348.2700889899374	404.54045394812096	0.0	396.86248783570136	390.84967247517795	0.0
297	4.95	231.28167224046956	546.7112687891333	0.0	207.43488800801362	550.7322610995736	0.0	206.44570264749143	671.1195627273705	0.0	217.5129177679059	771.1330674723184	0.0	183.6874605396166	808.0476752889026	0.0	178.33428714953962	798.2576999255325	0.0	227.97966436244846	786.0617468621326	0.0	256.122588726087	553.5549060375363	0.0	251.20536813767652	676.6905755433231	0.0	255.89924658640118	790.0106422758865	0.0	219.76677072152773	828.1285168101138	0.0	241.94890939817458	830.1525311096684	0.0	267.9388665118611	803.7798660118972	0.0	227.32528677999832	359.15326965953494	0.0	199.5267453167477	273.73447453328527	0.0	178.20045104013752	323.284532142164	0.0	190.92535091600908	381.0694875823672	0.0	146.7148702447612	400.4775844986755	0.0	84.5853436261419	375.81646227909965	0.0	278.87252777584774	377.97568886837036	0.0	344.9864759098882	401.6495942139041	0.0	384.2381543739816	377.6711723648041	0.0
